<svg width="9317" height="10612" viewBox="0 0 9317 10612" fill="none" xmlns="http://www.w3.org/2000/svg">
<rect width="1618.54" height="11670.6" transform="matrix(0.721417 -0.692501 0.690271 0.723551 83.082 1649.55)" fill="url(#paint0_linear_2_33)"/>
<rect width="1619.13" height="11674.9" transform="matrix(0.718953 0.695059 0.692302 -0.721608 18.0303 8952.19)" fill="url(#paint1_linear_2_33)"/>
<path fill-rule="evenodd" clip-rule="evenodd" d="M831.186 0.0546875H831.187H8515.41L9287.83 1627.39L8515.41 1627.39L7742.99 1627.39H1603.61L831.187 1627.39L58.7617 1627.39L831.186 0.0546875Z" fill="#FF7300"/>
<path fill-rule="evenodd" clip-rule="evenodd" d="M784.485 8959.3L5.1402 8956.81L779.35 10586.6L779.388 10586.5L8532.41 10611.4L9316.9 8986.56L7758.2 8981.57L7758.24 8981.65L1563.84 8961.8L784.485 8959.3L784.485 8959.3Z" fill="#8A52FF"/>
<defs>
<linearGradient id="paint0_linear_2_33" x1="809.27" y1="0" x2="809.27" y2="11670.6" gradientUnits="userSpaceOnUse">
<stop stop-color="#FF0000"/>
<stop offset="1" stop-color="#5200FF"/>
</linearGradient>
<linearGradient id="paint1_linear_2_33" x1="809.567" y1="0" x2="809.567" y2="11674.9" gradientUnits="userSpaceOnUse">
<stop stop-color="#5200FF"/>
<stop offset="1" stop-color="#FF0000"/>
</linearGradient>
</defs>
</svg>
